<?xml version="1.0" encoding="UTF-8"?>
<!DOCTYPE svg PUBLIC "-//W3C//DTD SVG 1.1//EN" "http://www.w3.org/Graphics/SVG/1.1/DTD/svg11.dtd">
<!-- Creator: CorelDRAW X7 -->
<svg xmlns="http://www.w3.org/2000/svg" xml:space="preserve" width="118.11in" height="39.3701in" version="1.1" style="shape-rendering:geometricPrecision; text-rendering:geometricPrecision; image-rendering:optimizeQuality; fill-rule:evenodd; clip-rule:evenodd"
viewBox="0 0 118110 39370"
 xmlns:xlink="http://www.w3.org/1999/xlink">
 <defs>
  <style type="text/css">
   <![CDATA[
    .str0 {stroke:#00AFEF;stroke-width:3}
    .fil2 {fill:#373435}
    .fil1 {fill:#FFF212}
    .fil0 {fill:#00AFEF}
   ]]>
  </style>
 </defs>
 <g id="Layer_x0020_1">
  <metadata id="CorelCorpID_0Corel-Layer"/>
  <g id="_347375528">
   <path class="fil0 str0" d="M7458 4281l103194 0c782,0 1417,636 1417,1417l0 27974c0,781 -635,1417 -1417,1417l-103194 0c-781,0 -1417,-636 -1417,-1417l0 -27974c0,-781 636,-1417 1417,-1417z"/>
  </g>
  <rect class="fil1 str0" x="7064" y="5305" width="103981" height="28761" rx="750" ry="394"/>
  <g id="_347375864">
   <path class="fil2" d="M59055 7376c5114,0 10597,827 15259,2824 3444,1477 7134,3947 8220,7486 200,651 304,1323 304,1999 0,676 -104,1348 -304,1999 -1086,3539 -4776,6009 -8220,7486 -4662,1997 -10145,2824 -15259,2824 -5113,0 -10597,-827 -15259,-2824 -3444,-1477 -7134,-3947 -8220,-7486 -200,-651 -303,-1323 -303,-1999 0,-676 103,-1348 303,-1999 1086,-3539 4776,-6009 8220,-7486 4662,-1997 10146,-2824 15259,-2824z"/>
  </g>
  <path class="fil1" d="M59055 8256c5102,0 10436,848 14858,2743 3587,1538 6772,3889 7705,6928 177,577 267,1166 267,1758 0,592 -90,1181 -267,1758 -933,3039 -4118,5390 -7705,6928 -4422,1895 -9756,2743 -14858,2743 -5101,0 -10436,-848 -14858,-2743 -3587,-1538 -6772,-3889 -7705,-6928 -177,-577 -267,-1166 -267,-1758 0,-592 90,-1181 267,-1758 933,-3039 4118,-5390 7705,-6928 4422,-1895 9757,-2743 14858,-2743z"/>
  <path class="fil0" d="M59055 9092c11837,0 21432,4743 21432,10593 0,5850 -9595,10593 -21432,10593 -11836,0 -21432,-4743 -21432,-10593 0,-5850 9596,-10593 21432,-10593z"/>
  <g id="_347374912">
   <path class="fil2" d="M72971 10440c5,-13 11,-26 17,-39l22 -44c111,-231 307,-394 580,-484l1238 -409c257,-84 511,-82 765,8 332,118 624,283 881,482 111,-295 239,-652 405,-928 120,-199 299,-337 544,-418l1315 -434c275,-91 551,-81 816,28 477,196 990,456 1190,900 89,198 95,392 17,594 -388,1000 -775,2001 -1146,3005 -105,285 -210,571 -308,858 -31,91 -70,196 -98,294 86,773 171,1546 243,2319 28,304 103,847 52,1144 -56,323 -292,576 -648,693l-1199 396c-156,51 -302,68 -468,55 -423,-35 -907,-347 -1249,-553 -263,-158 -413,-386 -435,-660 -65,-804 -131,-1609 -209,-2412 -25,-256 -43,-578 -90,-849l-1361 -1769 -2441 3870 2981 1930c386,250 516,681 320,1059l-23 45c-115,221 -306,377 -570,464l-1310 433c-208,68 -408,78 -624,31 -317,-69 -797,-358 -1074,-514 -33,-19 -66,-37 -99,-56 43,524 42,1117 -673,1354l-1232 406c-300,99 -605,79 -884,-59l-687 -339c-253,-125 -421,-317 -486,-552 28,233 54,466 69,699 29,474 -36,960 -674,1170l-3185 1051c-815,269 -1603,104 -2234,-367 -402,-168 -710,-446 -876,-813 -89,-199 -122,-485 -152,-697 -54,-394 -98,-790 -142,-1185 -158,-1457 -293,-2916 -427,-4374 -12,-127 5,-238 54,-359 227,-558 619,-1072 1290,-1293l3576 -1181c160,-52 309,-69 479,-54 421,39 838,316 1167,531 232,151 366,355 398,603 40,314 80,636 93,951 21,479 -76,967 -694,1171l-2248 742c5,47 10,92 14,132 41,425 101,851 164,1275 2,12 3,22 4,34l103 1013 1136 -374c258,-86 514,-82 769,9 498,180 1022,428 1228,885 22,50 38,97 50,147l-648 -7034c-36,-395 224,-749 656,-891l1231 -406c304,-101 615,-78 895,64l436 222 415 -642c121,-188 295,-318 530,-395l1582 -522c191,-63 373,-77 573,-42 100,17 199,45 296,81zm-26585 9394c-11,-289 20,-568 143,-772 121,-199 300,-337 544,-417l6055 -1999c243,-80 481,-81 725,-5 420,132 812,325 1113,612 152,145 235,305 259,498 36,297 72,597 91,895 31,473 -28,957 -670,1168l-1747 577 547 5321c41,397 -221,755 -655,899l-1274 420c-301,100 -608,79 -887,-60l-688 -342c-301,-150 -482,-395 -509,-692l-397 -4271 -445 147c-89,29 -169,46 -264,54 -481,43 -931,-221 -1313,-454 0,6 1,11 1,17 37,488 -57,993 -688,1202l-2404 793c-37,227 58,681 98,840 9,36 14,66 18,102l341 3141c7,67 6,124 -4,190 -167,1159 -892,2040 -2177,2464l-2698 891c-76,25 -144,40 -225,50 -255,31 -494,-20 -715,-125 -81,-38 -158,-82 -234,-128 -181,-110 -357,-231 -530,-352 -205,-142 -326,-322 -367,-545 -53,-293 -107,-596 -129,-892 -37,-480 79,-972 690,-1174l2449 -808c1,0 3,-1 4,-1 7,-60 -7,-154 -15,-195 -3,-14 -5,-26 -7,-40 -130,-967 -258,-1935 -360,-2904 -47,-440 -128,-1022 -90,-1461 5,-64 16,-118 37,-180 281,-832 855,-1527 1821,-1846l3024 -998c301,-99 608,-79 886,60l641 317c2,1 3,2 5,3zm11332 -4507c379,74 735,285 1037,488 152,102 255,221 324,375l17 37c35,78 54,148 64,232 194,1712 387,3424 565,5138 49,469 97,939 139,1409 20,226 51,482 45,708 -11,364 -262,669 -659,800l-1274 421c-311,102 -629,77 -912,-74l-702 -372c-288,-153 -458,-392 -484,-680l-647 -7148c-36,-394 225,-748 655,-890l1234 -407c199,-65 390,-77 598,-37z"/>
  </g>
  <g id="_347361752">
   <path class="fil2" d="M42200 21273l3025 -998 640 318c133,786 165,1193 92,1217l-2552 842c-515,170 -646,769 -390,1797l340 3141c-126,874 -635,1457 -1526,1751l-2698 890c-50,6 -278,-132 -684,-415 -131,-714 -159,-1083 -86,-1107l2449 -808c536,-177 748,-562 634,-1159 -329,-2444 -477,-3844 -446,-4199 221,-655 622,-1078 1202,-1270z"/>
   <path class="fil2" d="M47443 19466l6056 -1998c307,96 541,220 702,374 92,753 118,1137 75,1151l-2470 815 615 5981 -1274 421 -689 -342 -505 -5448 -1733 571c-72,7 -302,-108 -689,-343 -120,-686 -150,-1079 -88,-1182z"/>
   <path class="fil2" d="M57490 16186c143,28 353,135 629,321l17 37c504,4458 753,6841 744,7149l-1274 420 -702 -372 -648 -7148 1234 -407z"/>
   <path class="fil2" d="M61136 14942l3576 -1180c84,7 300,125 651,354 101,782 118,1183 52,1205l-2877 949c-96,63 -44,773 156,2131l221 2180 2413 -796c391,141 613,271 667,390 95,760 119,1146 73,1161l-3185 1051c-463,153 -895,54 -1296,-295 -239,-69 -401,-196 -484,-380 -87,-194 -306,-2196 -656,-6008 167,-411 397,-665 689,-762z"/>
   <path class="fil2" d="M68614 12495l629 320 17 37 131 1167 37 -12 1462 -2263 1582 -522c122,21 332,127 629,320l-3021 4792 3684 2385 -23 45 -1309 432c-125,-27 -1017,-530 -2676,-1505 214,1522 282,2295 206,2320l-1232 407 -687 -340 -660 -7176 1231 -407z"/>
   <path class="fil2" d="M75198 10286c471,167 874,502 1210,1007l440 578 36 -11c457,-1372 760,-2184 909,-2431l1315 -434c397,164 623,305 676,424 -1110,2861 -1647,4331 -1611,4412 234,2095 338,3215 313,3356l-1199 396c-77,-6 -327,-139 -756,-397 -173,-2160 -290,-3338 -350,-3533l-2242 -2915 21 -44 1238 -408z"/>
   <path class="fil1" d="M41031 27942l-2589 854 134 935 2839 -937c811,-267 1214,-905 1208,-1912 -307,-2394 -452,-3756 -438,-4090 151,-327 396,-546 735,-658l2375 -784 -132 -942 -2699 891c-915,301 -1359,877 -1332,1728l484 4187c-126,397 -319,640 -585,728z"/>
   <polygon class="fil1" points="47523,19552 47644,20498 49920,19747 50023,19790 50608,25704 51688,25348 51075,19366 53585,18538 53464,17591 "/>
   <path class="fil1" d="M57068 23609l1039 -343c59,-19 -78,-1403 -408,-4152l-281 -2791 -965 319c-53,143 48,1312 296,3506l319 3461z"/>
   <path class="fil1" d="M61205 21643c250,324 525,438 824,339l3342 -1102 -120 -957 -2798 923c-122,-11 -196,-49 -226,-115 -320,-2618 -479,-4221 -477,-4811l205 -145 2720 -897c53,-18 39,-344 -38,-979l-3263 1077c-711,234 -934,830 -671,1787l502 4880z"/>
   <path class="fil1" d="M67500 12975l692 6942 1081 -357 -252 -2422 41 -13 2717 1608 1117 -368 -3552 -2283 -30 -67c83,-201 993,-1626 2728,-4271l166 -323 -1196 395 -2113 3280 -108 -42 -247 -2424 -1044 345z"/>
   <path class="fil1" d="M74126 10753l2226 2878 321 3472 1123 -371c-291,-2313 -403,-3479 -335,-3502l1498 -4071 -1043 344 -1104 2873 -79 26 -1527 -2005 -1080 356z"/>
  </g>
 </g>
</svg>
